<svg width="70" height="72" viewBox="0 0 70 72" fill="none" xmlns="http://www.w3.org/2000/svg">
<path d="M68.3484 1.66199C67.9592 1.25903 67.4674 0.980035 66.9308 0.857809C66.3943 0.735584 65.8354 0.775208 65.3198 0.972024L1.8615 24.9708C1.31422 25.1867 0.84305 25.5706 0.51056 26.0716C0.178071 26.5726 0 27.1669 0 27.7756C0 28.3844 0.178071 28.9787 0.51056 29.4797C0.84305 29.9807 1.31422 30.3646 1.8615 30.5805L29.5524 42.0999L40.6287 70.8984C40.8368 71.4426 41.1935 71.9115 41.6549 72.2473C42.1162 72.5832 42.6619 72.7712 43.2248 72.7883C43.8077 72.7759 44.3733 72.58 44.847 72.2266C45.3207 71.8732 45.6804 71.3787 45.8785 70.8084L68.9542 4.81183C69.1507 4.28108 69.1981 3.70317 69.0909 3.14548C68.9836 2.58779 68.7261 2.0733 68.3484 1.66199ZM43.2248 61.3889L35.1771 40.39L48.9937 26.0207L44.9266 21.791L30.9946 36.2802L10.9187 27.7906L61.4834 8.80162L43.2248 61.3889Z" fill="#0D5C63"/>
</svg>
